<svg width="50" height="50" fill="none" xmlns="http://www.w3.org/2000/svg"><path d="M48.958 9.252H35.021V3.595c0-.953-.33-1.868-.916-2.542C33.52.38 32.725 0 31.895 0h-13.79c-.83 0-1.625.379-2.21 1.053-.587.674-.916 1.589-.916 2.542v5.657H1.042a.978.978 0 0 0-.737.351 1.3 1.3 0 0 0-.305.848v14.381c0 1.166.296 2.306.851 3.28.556.976 1.346 1.743 2.274 2.21v18.48c0 .317.11.622.305.847.195.225.46.351.737.351h41.666a.978.978 0 0 0 .737-.351 1.3 1.3 0 0 0 .305-.848v-18.48c.928-.466 1.718-1.234 2.273-2.208a6.657 6.657 0 0 0 .852-3.28V10.45a1.3 1.3 0 0 0-.305-.848.978.978 0 0 0-.737-.35ZM17.063 3.595c0-.317.11-.622.305-.847a.978.978 0 0 1 .736-.351h13.813c.276 0 .54.126.736.351.196.225.305.53.305.847v5.657H17.063V3.595Zm27.729 44.008H5.208V30.824h5.209v1.439c-.011.476.06.95.21 1.394.149.444.373.85.66 1.193.287.344.63.618 1.01.808.38.189.789.29 1.203.296h2.083a2.77 2.77 0 0 0 1.229-.269 3.13 3.13 0 0 0 1.038-.8c.296-.345.528-.755.683-1.206a4.08 4.08 0 0 0 .217-1.416v-1.438h12.5v1.438c0 .953.33 1.868.915 2.542.586.674 1.381 1.053 2.21 1.053h2.083c.83 0 1.624-.379 2.21-1.053.586-.674.915-1.589.915-2.542v-1.438h5.209v16.778ZM12.5 29.626v-1.941h4.167v4.554c0 .318-.11.622-.305.847a.978.978 0 0 1-.737.351h-2.083a.978.978 0 0 1-.737-.35 1.296 1.296 0 0 1-.305-.848v-2.613Zm25 2.637c0 .318-.11.622-.305.847a.978.978 0 0 1-.737.351h-2.083a.978.978 0 0 1-.737-.35 1.296 1.296 0 0 1-.305-.848v-4.554H37.5v4.554Zm10.417-7.43c0 .953-.33 1.867-.916 2.542-.586.674-1.38 1.053-2.21 1.053h-5.208v-1.942c0-.318-.11-.623-.305-.847a.978.978 0 0 0-.736-.351h-6.25a.978.978 0 0 0-.737.35 1.3 1.3 0 0 0-.305.848v1.942h-12.5v-1.942c0-.318-.11-.623-.305-.847a.978.978 0 0 0-.737-.351h-6.25a.978.978 0 0 0-.736.35c-.196.225-.305.53-.305.848v1.942H5.208c-.828 0-1.623-.38-2.21-1.053-.585-.675-.915-1.59-.915-2.543V11.65h45.834v13.183Z" fill="#fff"/></svg>