<svg width="50" height="39" fill="none" xmlns="http://www.w3.org/2000/svg"><g clip-path="url(#a)"><path d="M38.856 20.906s-5.467-5.574-13-5.574c-7.36 0-14.637 5.574-14.637 5.574L7.132 19.2v5.005a1.62 1.62 0 0 1 1.116 1.53c0 .724-.481 1.319-1.135 1.533l1.208 3.37H4.755l1.219-3.399a1.63 1.63 0 0 1-.03-2.99v-5.545L0 16.225l26.154-11.74 23.995 11.888-11.293 4.533Zm-13.298-2.75c7.579 0 11.293 4.012 11.293 4.012v8.321s-3.863 3.12-11.887 3.12c-8.023 0-10.698-3.12-10.698-3.12v-8.321s3.714-4.012 11.292-4.012Zm-.148 13.67c5.252 0 9.51-1.065 9.51-2.377 0-1.312-4.258-2.378-9.51-2.378-5.253 0-9.51 1.066-9.51 2.378s4.257 2.377 9.51 2.377Z" fill="#fff"/></g><defs><clipPath id="a"><path fill="#fff" d="M0 0h50v38.095H0z"/></clipPath></defs></svg>