<svg width="50" height="50" fill="none" xmlns="http://www.w3.org/2000/svg"><path d="M12.5 7.813H3.125A3.125 3.125 0 0 0 0 10.938v34.375a3.123 3.123 0 0 0 3.125 3.125H12.5a3.123 3.123 0 0 0 3.125-3.125V10.938A3.125 3.125 0 0 0 12.5 7.813Zm-7.812 31.25a1.562 1.562 0 1 1 0-3.125 1.561 1.561 0 1 1 0 3.125Zm7.812-18.75H3.125v-3.125H12.5v3.125Zm0-6.25H3.125v-3.125H12.5v3.125Zm20.313 28.124v-3.124h-9.376v3.124a3.124 3.124 0 0 0-3.125 3.126h15.625a3.123 3.123 0 0 0-3.124-3.126Z" fill="#fff"/><path d="M46.875 1.563h-37.5A3.125 3.125 0 0 0 6.25 4.688h40.626v25H18.75v6.25h28.125A3.123 3.123 0 0 0 50 32.812V4.688a3.125 3.125 0 0 0-3.125-3.125Zm-18.75 32.812a1.561 1.561 0 0 1-1.562-1.563 1.561 1.561 0 1 1 1.563 1.563Z" fill="#fff"/></svg>