<svg width="25" height="25" fill="none" xmlns="http://www.w3.org/2000/svg"><path d="M15.18 4.758a.571.571 0 0 1-.452.22.61.61 0 0 1-.332-.101L13.17 4.08a.63.63 0 0 1-.275-.4.631.631 0 0 1 .088-.478l.74-1.14a.584.584 0 0 1 1.067.18l.146.59c1.076.058 2.258.341 3.385.816 1.05.442 2.012 1.031 2.782 1.702a.556.556 0 1 1-.73.838c-.682-.595-1.54-1.119-2.483-1.516a9.452 9.452 0 0 0-2.673-.704l.067.275a.596.596 0 0 1-.104.514ZM3.797 18.846l.993-1.94-.096-1.434a3.453 3.453 0 0 1 .368-1.801l1.7-3.347c.209-.39.85-.81 1.475-.81.127 0 .25.017.364.05.182.052.545.108.896.162.44.067.893.137 1.204.224.16.045.51.103.85.158.448.073.913.15 1.216.235.298.084.564.223.772.396.689-1.038 2.34-3.522 2.59-3.891l-.001-.002c.223-.341.566-.53.964-.53.469 0 .933.265 1.183.674.221.362.238.785.046 1.16l-3.877 7.638a1.976 1.976 0 0 0 1.485-.177l.087-.047.305-.165a1.58 1.58 0 0 1 .753-.199c.51 0 .968.278 1.194.726.232.46.173 1.003-.159 1.453-.623.844-2.632 2.455-5.646 3.488l-.967 1.894a.831.831 0 0 1-1.115.364l-6.22-3.163a.824.824 0 0 1-.413-.482.824.824 0 0 1 .05-.634Z" fill="#fff"/></svg>