<svg width="50" height="50" viewBox="0 0 50 50" fill="none" xmlns="http://www.w3.org/2000/svg">
<path d="M26.0031 13.9444L40.9965 11.7666C42.2808 11.5801 43.4422 12.5516 43.4851 13.8488L44.3027 38.4625C44.3418 39.6426 43.4328 40.6391 42.2539 40.7082L26.4432 41.6332C25.193 41.7063 24.139 40.7121 24.139 39.4598V16.0989C24.139 15.0174 24.9328 14.0999 26.0031 13.9444Z" fill="#666666"/>
<path d="M23.9969 13.9444L9.00359 11.7666C7.71922 11.5801 6.55793 12.5516 6.51484 13.8488L5.69742 38.4625C5.6582 39.6426 6.56715 40.6391 7.74609 40.7082L23.5568 41.6332C24.807 41.7063 25.861 40.7121 25.861 39.4598V16.0989C25.861 15.0174 25.0671 14.0999 23.9969 13.9444Z" fill="#666666"/>
<path d="M25.6589 13.1744L40.3719 10.6943C40.8062 10.6211 41.2051 10.9486 41.218 11.3889L41.9852 37.8883C41.9965 38.2782 41.6973 38.6072 41.3082 38.6333L25.8281 39.6711C25.4091 39.6992 25.0539 39.3668 25.0539 38.947V13.89C25.0539 13.5357 25.3096 13.2332 25.6589 13.1744Z" fill="white"/>
<path fill-rule="evenodd" clip-rule="evenodd" d="M40.2512 9.97877L25.5383 12.4588C24.8397 12.5765 24.3282 13.1815 24.3282 13.89V38.9471C24.3282 39.7867 25.0387 40.4512 25.8766 40.3953L41.3566 39.3574C42.1352 39.3051 42.7332 38.6471 42.7105 37.8673L41.9434 11.368C41.918 10.4873 41.1199 9.83237 40.2512 9.97877ZM40.3719 10.6944L25.6589 13.1744C25.3096 13.2333 25.0539 13.5357 25.0539 13.89V38.9471C25.0539 39.3668 25.4091 39.6992 25.8281 39.6711L41.3082 38.6333C41.6973 38.6073 41.9965 38.2782 41.9852 37.8883L41.218 11.389C41.2051 10.9487 40.8062 10.6212 40.3719 10.6944Z" fill="#666666"/>
<path d="M25.9236 13.1161L38.5554 9.12332C39.0148 8.97813 39.4856 9.31266 39.4996 9.79426L40.2652 36.2474C40.2758 36.6032 40.0266 36.9139 39.677 36.9811L26.2794 39.557C25.8318 39.6433 25.4167 39.3003 25.4167 38.8444V13.808C25.4167 13.4915 25.6218 13.2115 25.9236 13.1161Z" fill="white"/>
<path fill-rule="evenodd" clip-rule="evenodd" d="M38.3367 8.43148L25.7049 12.4242C25.1013 12.615 24.691 13.175 24.691 13.8081V38.8445C24.691 39.7559 25.5213 40.4418 26.4164 40.27L39.8141 37.6938C40.5129 37.5594 41.0113 36.938 40.9906 36.2265L40.225 9.77335C40.1969 8.81015 39.2555 8.14105 38.3367 8.43148ZM38.5554 9.12343L25.9236 13.1161C25.6218 13.2116 25.4167 13.4916 25.4167 13.8081V38.8445C25.4167 39.3004 25.8318 39.643 26.2794 39.5571L39.677 36.9812C40.0266 36.9139 40.2758 36.6032 40.2652 36.2475L39.4996 9.79437C39.4856 9.31277 39.0148 8.9782 38.5554 9.12343Z" fill="#666666"/>
<path d="M28.7303 11.7094L30.9581 10.9822V16.9461L29.8442 16.2626L28.7303 17.3766V11.7094Z" fill="#666666"/>
<path fill-rule="evenodd" clip-rule="evenodd" d="M28.0046 11.7095C28.0046 11.3955 28.2066 11.1171 28.5051 11.0196L30.733 10.2924C30.9539 10.2203 31.1961 10.2584 31.3843 10.3949C31.5725 10.5314 31.6838 10.7498 31.6838 10.9823V16.9461C31.6838 17.2089 31.5418 17.4511 31.3125 17.5794C31.0833 17.7077 30.8026 17.7021 30.5786 17.5647L29.9526 17.1806L29.2434 17.8898C29.0359 18.0974 28.7237 18.1594 28.4526 18.0471C28.1814 17.9348 28.0046 17.6702 28.0046 17.3767V11.7095ZM30.9581 16.9461L29.8442 16.2627L28.7303 17.3767V11.7095L30.9581 10.9823V16.9461Z" fill="#666666"/>
<path d="M24.0188 13.1739L9.40848 10.6954C8.97383 10.6217 8.57441 10.9494 8.56172 11.3901L7.79945 37.8888C7.78824 38.2785 8.08699 38.6074 8.47598 38.6337L23.8486 39.6708C24.2677 39.6993 24.6232 39.3669 24.6232 38.9468V13.8894C24.6232 13.5354 24.3678 13.2331 24.0188 13.1739Z" fill="white"/>
<path fill-rule="evenodd" clip-rule="evenodd" d="M9.52985 9.98001L24.1402 12.4585C24.8381 12.5769 25.3488 13.1815 25.3488 13.8894V38.9468C25.3488 39.7868 24.6379 40.4512 23.7998 40.395L8.42715 39.3579C7.64914 39.3051 7.05164 38.6474 7.07407 37.8679L7.83637 11.3692C7.86172 10.4879 8.66059 9.83255 9.52985 9.98001ZM9.40848 10.6955L24.0189 13.1739C24.3678 13.2331 24.6232 13.5354 24.6232 13.8894V38.9468C24.6232 39.3668 24.2677 39.6993 23.8486 39.6708L8.47598 38.6337C8.087 38.6074 7.78825 38.2785 7.79946 37.8888L8.56172 11.3901C8.57442 10.9494 8.97387 10.6217 9.40848 10.6955Z" fill="#666666"/>
<path fill-rule="evenodd" clip-rule="evenodd" d="M20.5847 20.3727C21.0635 20.1604 21.6107 20.1809 22.0286 20.3782C22.2098 20.4637 22.2873 20.68 22.2018 20.8612C22.1162 21.0424 21.9 21.1199 21.7187 21.0344C21.4905 20.9266 21.1637 20.9098 20.8789 21.0361C20.6118 21.1546 20.3613 21.408 20.2789 21.8917C20.1969 22.3721 20.3055 22.8322 20.5454 23.1375C20.7728 23.4269 21.1428 23.6112 21.6888 23.5188C21.8864 23.4854 22.0737 23.6184 22.1071 23.816C22.1405 24.0136 22.0075 24.2009 21.8099 24.2343C21.0145 24.369 20.3742 24.0942 19.9748 23.5858C19.5878 23.0933 19.4531 22.4169 19.5635 21.7697C19.6855 21.0542 20.0883 20.5929 20.5847 20.3727Z" fill="#666666"/>
<path fill-rule="evenodd" clip-rule="evenodd" d="M38.731 18.5582C38.6926 18.3616 38.502 18.2333 38.3054 18.2717L26.7354 20.5319C26.5387 20.5703 26.4104 20.7609 26.4488 20.9576C26.4872 21.1542 26.6778 21.2825 26.8745 21.2441L38.4445 18.9839C38.6412 18.9455 38.7695 18.7549 38.731 18.5582Z" fill="#666666"/>
<path fill-rule="evenodd" clip-rule="evenodd" d="M38.731 20.2265C38.6926 20.0298 38.502 19.9015 38.3054 19.9399L26.7354 22.2001C26.5387 22.2385 26.4104 22.4291 26.4488 22.6258C26.4872 22.8224 26.6778 22.9507 26.8745 22.9123L38.4445 20.6521C38.6412 20.6137 38.7695 20.4231 38.731 20.2265Z" fill="#666666"/>
<path fill-rule="evenodd" clip-rule="evenodd" d="M38.731 26.9264C38.6926 26.7297 38.502 26.6014 38.3054 26.6399L26.7354 28.9C26.5387 28.9385 26.4104 29.129 26.4488 29.3257C26.4872 29.5224 26.6778 29.6507 26.8745 29.6122L38.4445 27.3521C38.6412 27.3137 38.7695 27.1231 38.731 26.9264Z" fill="#666666"/>
<path fill-rule="evenodd" clip-rule="evenodd" d="M38.731 21.9486C38.6926 21.7519 38.502 21.6237 38.3054 21.6621L26.7354 23.9223C26.5387 23.9607 26.4104 24.1512 26.4488 24.3479C26.4872 24.5446 26.6778 24.6729 26.8745 24.6345L38.4445 22.3743C38.6412 22.3359 38.7695 22.1453 38.731 21.9486Z" fill="#666666"/>
<path fill-rule="evenodd" clip-rule="evenodd" d="M38.731 28.6486C38.6926 28.4519 38.502 28.3236 38.3054 28.362L26.7354 30.6222C26.5387 30.6607 26.4104 30.8512 26.4488 31.0479C26.4872 31.2446 26.6778 31.3729 26.8745 31.3344L38.4445 29.0742C38.6412 29.0358 38.7695 28.8453 38.731 28.6486Z" fill="#666666"/>
<path fill-rule="evenodd" clip-rule="evenodd" d="M38.731 23.7379C38.6926 23.5413 38.502 23.413 38.3054 23.4514L26.7354 25.7116C26.5387 25.75 26.4104 25.9406 26.4488 26.1372C26.4872 26.3339 26.6778 26.4622 26.8745 26.4238L38.4445 24.1636C38.6412 24.1252 38.7695 23.9346 38.731 23.7379Z" fill="#666666"/>
<path fill-rule="evenodd" clip-rule="evenodd" d="M38.731 30.4379C38.6926 30.2412 38.502 30.1129 38.3054 30.1513L26.7354 32.4115C26.5387 32.4499 26.4104 32.6405 26.4488 32.8372C26.4872 33.0339 26.6778 33.1622 26.8745 33.1237L38.4445 30.8635C38.6412 30.8251 38.7695 30.6345 38.731 30.4379Z" fill="#666666"/>
<path fill-rule="evenodd" clip-rule="evenodd" d="M33.4855 33.3381C33.4515 33.1407 33.2638 33.0082 33.0663 33.0422L26.7432 34.132C26.5457 34.1661 26.4132 34.3538 26.4472 34.5512C26.4813 34.7487 26.669 34.8812 26.8664 34.8472L33.1896 33.7573C33.387 33.7233 33.5195 33.5356 33.4855 33.3381Z" fill="#666666"/>
<path fill-rule="evenodd" clip-rule="evenodd" d="M10.1896 26.3505C10.2079 26.1509 10.3845 26.004 10.5841 26.0223L22.3155 27.0986C22.5151 27.1169 22.662 27.2935 22.6437 27.4931C22.6254 27.6926 22.4488 27.8396 22.2492 27.8212L10.5178 26.7449C10.3182 26.7267 10.1713 26.55 10.1896 26.3505Z" fill="#666666"/>
<path fill-rule="evenodd" clip-rule="evenodd" d="M10.1896 31.1925C10.2079 30.993 10.3845 30.846 10.5841 30.8643L22.3155 31.9406C22.5151 31.9589 22.662 32.1355 22.6437 32.3351C22.6254 32.5346 22.4488 32.6816 22.2492 32.6633L10.5178 31.587C10.3182 31.5687 10.1713 31.3921 10.1896 31.1925Z" fill="#666666"/>
<path fill-rule="evenodd" clip-rule="evenodd" d="M10.1889 28.0785C10.2023 27.8786 10.3753 27.7274 10.5753 27.7408L16.9791 28.1713C17.1791 28.1848 17.3302 28.3578 17.3168 28.5577C17.3034 28.7576 17.1304 28.9088 16.9304 28.8954L10.5266 28.4649C10.3266 28.4514 10.1755 28.2784 10.1889 28.0785Z" fill="#666666"/>
<path fill-rule="evenodd" clip-rule="evenodd" d="M10.1889 32.9195C10.203 32.7197 10.3764 32.5689 10.5763 32.5829L19.7667 33.2263C19.9666 33.2403 20.1173 33.4137 20.1033 33.6136C20.0893 33.8135 19.9159 33.9642 19.716 33.9502L10.5256 33.3068C10.3257 33.2929 10.175 33.1195 10.1889 32.9195Z" fill="#666666"/>
<path fill-rule="evenodd" clip-rule="evenodd" d="M10.1889 34.4652C10.2023 34.2653 10.3753 34.1141 10.5753 34.1275L16.9791 34.558C17.1791 34.5715 17.3302 34.7445 17.3168 34.9444C17.3034 35.1444 17.1304 35.2955 16.9304 35.2821L10.5266 34.8516C10.3266 34.8382 10.1755 34.6652 10.1889 34.4652Z" fill="#666666"/>
<path fill-rule="evenodd" clip-rule="evenodd" d="M12.5744 15.79C12.7292 15.7974 12.8622 15.9022 12.9055 16.051L15.058 23.4504C15.114 23.6429 15.0034 23.8442 14.811 23.9002C14.6186 23.9562 14.4172 23.8456 14.3612 23.6531L12.5038 17.2682L10.069 23.3899C9.99492 23.5761 9.78394 23.667 9.59773 23.593C9.41152 23.5189 9.32062 23.3079 9.39469 23.1217L12.2199 16.0183C12.2772 15.8743 12.4196 15.7825 12.5744 15.79Z" fill="#666666"/>
<path fill-rule="evenodd" clip-rule="evenodd" d="M14.1444 20.7403C14.1444 20.9407 13.982 21.1031 13.7816 21.1031H10.7545C10.5541 21.1031 10.3916 20.9407 10.3916 20.7403C10.3916 20.5399 10.5541 20.3774 10.7545 20.3774L13.7816 20.3775C13.982 20.3775 14.1444 20.5399 14.1444 20.7403Z" fill="#666666"/>
<path fill-rule="evenodd" clip-rule="evenodd" d="M16.633 18.7626V20.2449C16.7284 20.2487 16.8305 20.2593 16.9336 20.2751C17.075 20.2636 17.2297 20.2387 17.3757 20.1928C17.5476 20.1389 17.6803 20.0643 17.7666 19.9747C17.8448 19.8934 17.8985 19.7869 17.8985 19.6235C17.8985 19.3061 17.7111 19.0933 17.3686 18.9426C17.1401 18.8421 16.8735 18.7867 16.633 18.7626ZM18.0727 20.6595C18.1496 20.6074 18.2227 20.5473 18.2894 20.478C18.4962 20.2631 18.6242 19.9768 18.6242 19.6235C18.6242 18.9077 18.1478 18.4926 17.6608 18.2783C17.1816 18.0675 16.6262 18.0132 16.2604 18.0231C16.0639 18.0284 15.9074 18.1892 15.9074 18.3858V23.6058C15.9074 23.7664 16.0129 23.9078 16.1668 23.9536C16.5598 24.0704 17.2022 24.1131 17.783 23.9283C18.0788 23.8341 18.3741 23.676 18.6089 23.4226C18.8471 23.1657 19.0066 22.8282 19.0525 22.4074C19.1484 21.5291 18.627 20.9736 18.0727 20.6595ZM16.633 21.0066C16.7145 21.0097 16.8034 21.0093 16.8968 21.0046C17.115 21.0443 17.3681 21.1177 17.6014 21.2312C18.0778 21.463 18.3879 21.8081 18.3311 22.3287C18.3012 22.6033 18.2031 22.793 18.0767 22.9293C17.9469 23.0693 17.7707 23.1707 17.563 23.2367C17.2509 23.3361 16.9032 23.3444 16.633 23.3102V21.0066Z" fill="#666666"/>
</svg>
