<svg width="50" height="39" viewBox="0 0 50 39" fill="none" xmlns="http://www.w3.org/2000/svg">
<g clip-path="url(#clip0_31_141)">
<path d="M38.856 20.906C38.856 20.906 33.3893 15.3321 25.856 15.3321C18.4952 15.3321 11.219 20.906 11.219 20.906L7.13214 19.2V24.2048C7.77619 24.4238 8.24762 25.0167 8.24762 25.7345C8.24762 26.4595 7.76667 27.0536 7.1131 27.2679L8.32143 30.6381H4.75476L5.97381 27.2393C5.3881 26.9905 4.97857 26.4119 4.97857 25.7345C4.97857 25.0714 5.37619 24.5071 5.94405 24.25V18.7036L0 16.225L26.1536 4.48572L50.1488 16.3726L38.856 20.906ZM25.5583 18.156C33.1369 18.156 36.8512 22.1679 36.8512 22.1679V30.4893C36.8512 30.4893 32.9881 33.6095 24.9643 33.6095C16.9405 33.6095 14.2655 30.4893 14.2655 30.4893V22.1679C14.2655 22.1679 17.9798 18.156 25.5583 18.156ZM25.4095 31.8262C30.6619 31.8262 34.9202 30.7607 34.9202 29.4488C34.9202 28.1369 30.6619 27.0714 25.4095 27.0714C20.1571 27.0714 15.9 28.1369 15.9 29.4488C15.9 30.7607 20.1571 31.8262 25.4095 31.8262Z" fill="white"/>
</g>
<defs>
<clipPath id="clip0_31_141">
<rect width="50" height="38.0952" fill="white"/>
</clipPath>
</defs>
</svg>
