<svg width="60" height="60" viewBox="0 0 60 60" fill="none" xmlns="http://www.w3.org/2000/svg">
<path d="M46.27 32.4901H46.22L48.14 10.6101C48.166 10.3034 48.1313 9.99454 48.0378 9.70127C47.9442 9.408 47.7938 9.13607 47.595 8.90105C47.3962 8.66603 47.153 8.47254 46.8793 8.33167C46.6056 8.19079 46.3068 8.1053 46 8.0801L18.55 5.6801C17.931 5.62446 17.3152 5.81629 16.8373 6.2136C16.3594 6.61091 16.0583 7.18135 16 7.8001L15.75 10.7101H13.55C12.9389 10.71 12.3523 10.95 11.9164 11.3783C11.4806 11.8067 11.2305 12.3891 11.22 13.0001V50.4301C11.22 51.048 11.4655 51.6407 11.9024 52.0777C12.3394 52.5146 12.932 52.7601 13.55 52.7601H17.55C17.7397 53.2228 18.0623 53.6188 18.477 53.8983C18.8917 54.1777 19.3799 54.328 19.88 54.3301H46.27C46.9349 54.3275 47.5718 54.0622 48.0419 53.592C48.5121 53.1219 48.7774 52.485 48.78 51.8201V35.0001C48.7774 34.3352 48.5121 33.6983 48.0419 33.2282C47.5718 32.758 46.9349 32.4927 46.27 32.4901ZM18 8.0001C18.0038 7.95669 18.0161 7.91447 18.0363 7.87585C18.0564 7.83723 18.084 7.80299 18.1175 7.7751C18.151 7.74721 18.1896 7.72622 18.2313 7.71335C18.2729 7.70048 18.3166 7.69597 18.36 7.7001L45.82 10.1001C45.8634 10.1039 45.9056 10.1162 45.9442 10.1364C45.9829 10.1565 46.0171 10.1841 46.045 10.2176C46.0729 10.2511 46.0939 10.2897 46.1067 10.3313C46.1196 10.373 46.1241 10.4167 46.12 10.4601L44.21 32.4901H43.45V13.0001C43.45 12.3821 43.2045 11.7895 42.7676 11.3525C42.3306 10.9156 41.738 10.6701 41.12 10.6701H17.78L18 8.0001ZM17.32 39.5701V50.7601H13.55C13.4625 50.7601 13.3785 50.7253 13.3167 50.6634C13.2548 50.6016 13.22 50.5176 13.22 50.4301V13.0001C13.22 12.9126 13.2548 12.8286 13.3167 12.7668C13.3785 12.7049 13.4625 12.6701 13.55 12.6701H41.12C41.2075 12.6701 41.2915 12.7049 41.3533 12.7668C41.4152 12.8286 41.45 12.9126 41.45 13.0001V32.4901H36.74C35.8309 32.4908 34.9491 32.8012 34.24 33.3701L30.19 36.5901C29.8328 36.8767 29.388 37.032 28.93 37.0301H19.85C19.1843 37.0301 18.5459 37.2945 18.0752 37.7653C17.6044 38.236 17.34 38.8744 17.34 39.5401L17.32 39.5701ZM46.78 51.8201C46.78 51.9554 46.7263 52.0851 46.6306 52.1807C46.535 52.2764 46.4053 52.3301 46.27 52.3301H19.85C19.7147 52.3301 19.585 52.2764 19.4894 52.1807C19.3937 52.0851 19.34 51.9554 19.34 51.8201V39.5401C19.34 39.4048 19.3937 39.2751 19.4894 39.1795C19.585 39.0838 19.7147 39.0301 19.85 39.0301H28.93C29.8426 39.0317 30.7282 38.7212 31.44 38.1501L35.44 34.9301C35.7999 34.6483 36.2429 34.4936 36.7 34.4901H46.23C46.3653 34.4901 46.495 34.5438 46.5906 34.6395C46.6863 34.7351 46.74 34.8648 46.74 35.0001L46.78 51.8201Z" fill="white"/>
<path d="M43.64 48.27H39.87C39.6048 48.27 39.3504 48.3754 39.1629 48.5629C38.9754 48.7504 38.87 49.0048 38.87 49.27C38.87 49.5352 38.9754 49.7896 39.1629 49.9771C39.3504 50.1647 39.6048 50.27 39.87 50.27H43.64C43.9052 50.27 44.1596 50.1647 44.3471 49.9771C44.5346 49.7896 44.64 49.5352 44.64 49.27C44.64 49.0048 44.5346 48.7504 44.3471 48.5629C44.1596 48.3754 43.9052 48.27 43.64 48.27Z" fill="white"/>
<path d="M24.7 18.1201H30C30.2652 18.1201 30.5196 18.0148 30.7071 17.8272C30.8946 17.6397 31 17.3853 31 17.1201C31 16.8549 30.8946 16.6005 30.7071 16.413C30.5196 16.2255 30.2652 16.1201 30 16.1201H24.7C24.4348 16.1201 24.1804 16.2255 23.9929 16.413C23.8054 16.6005 23.7 16.8549 23.7 17.1201C23.7 17.3853 23.8054 17.6397 23.9929 17.8272C24.1804 18.0148 24.4348 18.1201 24.7 18.1201Z" fill="white"/>
<path d="M19 23.79H35.64C35.9052 23.79 36.1596 23.6847 36.3471 23.4971C36.5346 23.3096 36.64 23.0553 36.64 22.79C36.64 22.5248 36.5346 22.2705 36.3471 22.0829C36.1596 21.8954 35.9052 21.79 35.64 21.79H19C18.7348 21.79 18.4804 21.8954 18.2929 22.0829C18.1054 22.2705 18 22.5248 18 22.79C18 23.0553 18.1054 23.3096 18.2929 23.4971C18.4804 23.6847 18.7348 23.79 19 23.79Z" fill="white"/>
<path d="M36.64 27.8301C36.64 27.5649 36.5346 27.3105 36.3471 27.123C36.1596 26.9354 35.9052 26.8301 35.64 26.8301H19C18.7348 26.8301 18.4804 26.9354 18.2929 27.123C18.1054 27.3105 18 27.5649 18 27.8301C18 28.0953 18.1054 28.3496 18.2929 28.5372C18.4804 28.7247 18.7348 28.8301 19 28.8301H35.64C35.9052 28.8301 36.1596 28.7247 36.3471 28.5372C36.5346 28.3496 36.64 28.0953 36.64 27.8301Z" fill="white"/>
</svg>
