<svg width="50" height="50" viewBox="0 0 50 50" fill="none" xmlns="http://www.w3.org/2000/svg">
<path d="M12.5001 7.81268H3.12514C1.39774 7.81268 0 9.21341 0 10.9376V45.313C0 47.04 1.39774 48.4376 3.12514 48.4376H12.5002C14.2275 48.4376 15.6251 47.04 15.6251 45.313V10.9376C15.625 9.21341 14.2274 7.81268 12.5001 7.81268ZM4.68765 39.0627C3.8239 39.0627 3.12514 38.3639 3.12514 37.4997C3.12514 36.6364 3.8239 35.9377 4.68765 35.9377C5.55119 35.9377 6.24996 36.6364 6.24996 37.4997C6.24996 38.3639 5.55119 39.0627 4.68765 39.0627ZM12.5001 20.3126H3.12514V17.1878H12.5002V20.3126H12.5001ZM12.5001 14.0626H3.12514V10.9376H12.5002V14.0626H12.5001Z" fill="white"/>
<path d="M32.8128 42.1874V39.0628H23.4375V42.1874C21.7106 42.1874 20.3124 43.5855 20.3124 45.313H35.9375C35.9375 43.5855 34.5399 42.1874 32.8128 42.1874Z" fill="white"/>
<path d="M46.8754 1.5625H9.37509C7.6478 1.5625 6.24995 2.96323 6.24995 4.68764H9.37509H18.7502H46.8755V29.6875H18.7501V35.9376H46.8754C48.6024 35.9376 50 34.5401 50 32.812V4.68753C50 2.96313 48.6022 1.5625 46.8754 1.5625ZM28.1252 34.3751C27.2614 34.3751 26.5627 33.6768 26.5627 32.812C26.5627 31.9488 27.2614 31.25 28.1252 31.25C28.989 31.25 29.6878 31.9488 29.6878 32.812C29.6878 33.6768 28.9889 34.3751 28.1252 34.3751Z" fill="white"/>
</svg>
