<svg width="25" height="25" viewBox="0 0 25 25" fill="none" xmlns="http://www.w3.org/2000/svg">
<path d="M15.1808 4.75759C15.0714 4.89723 14.9065 4.97742 14.7283 4.97742C14.6124 4.97742 14.4974 4.9426 14.3959 4.87671L13.1708 4.08139C13.0288 3.98907 12.9313 3.84694 12.896 3.68116C12.8607 3.51508 12.8922 3.34519 12.9844 3.20328L13.7245 2.06342C13.8374 1.88967 14.0238 1.78589 14.2232 1.78589C14.4958 1.78589 14.7243 1.96969 14.7919 2.24351L14.9374 2.83328C16.0129 2.8915 17.1952 3.174 18.3222 3.64885C19.3726 4.09148 20.3344 4.68028 21.1038 5.35148C21.335 5.55323 21.359 5.9041 21.1573 6.13539C21.0474 6.26128 20.8934 6.32569 20.7384 6.32569C20.6089 6.32569 20.4788 6.28069 20.3734 6.18873C19.692 5.59426 18.8335 5.07007 17.8907 4.67275C16.9978 4.29648 16.0735 4.05521 15.2175 3.96862L15.2854 4.24371C15.3308 4.42744 15.2925 4.61475 15.1808 4.7576L15.1808 4.75759ZM3.79619 18.8462L4.78906 16.9068L4.69342 15.4721C4.65056 14.8505 4.77754 14.2274 5.06064 13.6705L6.76177 10.3242C6.96955 9.93335 7.61162 9.51478 8.23623 9.51478C8.36259 9.51478 8.48513 9.53085 8.59997 9.56442C8.7818 9.61621 9.14482 9.67192 9.49585 9.72567C9.93506 9.793 10.3893 9.86264 10.7002 9.95044C10.8607 9.99526 11.2109 10.0526 11.5497 10.1079C11.9984 10.1813 12.4626 10.2572 12.7665 10.3428C13.0638 10.4269 13.3299 10.5658 13.5384 10.7388C14.2267 9.7015 15.8772 7.21655 16.1288 6.84758L16.127 6.84632C16.3503 6.5048 16.6926 6.31671 17.0912 6.31671C17.5596 6.31671 18.024 6.581 18.2743 6.99021C18.4955 7.35171 18.5122 7.77475 18.3204 8.14998L14.4427 15.7878C14.5684 15.8228 14.7504 15.8585 14.9689 15.8585C15.3013 15.8585 15.6237 15.7753 15.9279 15.6109L16.0145 15.5643C16.1238 15.5055 16.2245 15.4512 16.3195 15.3994C16.5652 15.2671 16.8186 15.2002 17.0728 15.2002C17.5834 15.2002 18.041 15.4782 18.2669 15.9257C18.4994 16.386 18.4401 16.9292 18.1084 17.3787C17.4854 18.2229 15.476 19.8337 12.4622 20.8672L11.495 22.7609C11.3528 23.0405 11.0689 23.2142 10.7542 23.2142C10.7542 23.2142 10.7542 23.2142 10.7541 23.2142C10.6246 23.2142 10.495 23.1831 10.3795 23.1244L4.15924 19.9625C3.96218 19.8623 3.81567 19.6909 3.74694 19.4798C3.67821 19.2689 3.69544 19.0441 3.79622 18.846L3.79619 18.8462Z" fill="white"/>
</svg>
