<svg width="50" height="50" viewBox="0 0 50 50" fill="none" xmlns="http://www.w3.org/2000/svg">
<path d="M48.9583 9.25216H35.0208V3.5954C35.0208 2.64184 34.6916 1.72734 34.1055 1.05307C33.5195 0.3788 32.7246 0 31.8958 0L18.1042 0C17.2754 0 16.4805 0.3788 15.8945 1.05307C15.3084 1.72734 14.9792 2.64184 14.9792 3.5954V9.25216H1.04167C0.765399 9.25216 0.500448 9.37842 0.305097 9.60318C0.109747 9.82794 0 10.1328 0 10.4506L0 24.8322C0.000521877 25.9977 0.296421 27.1376 0.851463 28.1126C1.40651 29.0875 2.1966 29.855 3.125 30.3212V48.8015C3.125 49.1194 3.23475 49.4242 3.4301 49.649C3.62545 49.8737 3.8904 50 4.16667 50H45.8333C46.1096 50 46.3745 49.8737 46.5699 49.649C46.7653 49.4242 46.875 49.1194 46.875 48.8015V30.3212C47.8034 29.855 48.5935 29.0875 49.1485 28.1126C49.7036 27.1376 49.9995 25.9977 50 24.8322V10.4506C50 10.1328 49.8903 9.82794 49.6949 9.60318C49.4995 9.37842 49.2346 9.25216 48.9583 9.25216ZM17.0625 3.5954C17.0625 3.27754 17.1722 2.97271 17.3676 2.74795C17.5629 2.5232 17.8279 2.39693 18.1042 2.39693H31.9167C32.1929 2.39693 32.4579 2.5232 32.6532 2.74795C32.8486 2.97271 32.9583 3.27754 32.9583 3.5954V9.25216H17.0625V3.5954ZM44.7917 47.6031H5.20833V30.8245H10.4167V32.2627C10.4056 32.7389 10.4769 33.2128 10.6263 33.657C10.7758 34.1012 11.0005 34.5068 11.2874 34.8502C11.5743 35.1936 11.9176 35.4681 12.2974 35.6576C12.6773 35.847 13.086 35.9478 13.5 35.954H15.5833C16.0043 35.9606 16.4221 35.8693 16.8117 35.6855C17.2012 35.5018 17.5545 35.2293 17.8502 34.8846C18.146 34.5398 18.3781 34.1299 18.5328 33.6793C18.6874 33.2288 18.7613 32.7469 18.75 32.2627V30.8245H31.25V32.2627C31.25 33.2163 31.5792 34.1308 32.1653 34.805C32.7513 35.4793 33.5462 35.8581 34.375 35.8581H36.4583C37.2871 35.8581 38.082 35.4793 38.668 34.805C39.2541 34.1308 39.5833 33.2163 39.5833 32.2627V30.8245H44.7917V47.6031ZM12.5 29.6261V27.6846H16.6667V32.2387C16.6667 32.5566 16.5569 32.8614 16.3616 33.0862C16.1662 33.3109 15.9013 33.4372 15.625 33.4372H13.5417C13.2654 33.4372 13.0004 33.3109 12.8051 33.0862C12.6097 32.8614 12.5 32.5566 12.5 32.2387V29.6261ZM37.5 32.2627C37.5 32.5806 37.3903 32.8854 37.1949 33.1101C36.9996 33.3349 36.7346 33.4612 36.4583 33.4612H34.375C34.0987 33.4612 33.8338 33.3349 33.6384 33.1101C33.4431 32.8854 33.3333 32.5806 33.3333 32.2627V27.7085H37.5V32.2627ZM47.9167 24.8322C47.9167 25.7858 47.5874 26.7003 47.0014 27.3745C46.4153 28.0488 45.6205 28.4276 44.7917 28.4276H39.5833V26.4861C39.5833 26.1682 39.4736 25.8634 39.2782 25.6387C39.0829 25.4139 38.8179 25.2876 38.5417 25.2876H32.2917C32.0154 25.2876 31.7504 25.4139 31.5551 25.6387C31.3597 25.8634 31.25 26.1682 31.25 26.4861V28.4276H18.75V26.4861C18.75 26.1682 18.6403 25.8634 18.4449 25.6387C18.2496 25.4139 17.9846 25.2876 17.7083 25.2876H11.4583C11.1821 25.2876 10.9171 25.4139 10.7218 25.6387C10.5264 25.8634 10.4167 26.1682 10.4167 26.4861V28.4276H5.20833C4.37953 28.4276 3.58468 28.0488 2.99862 27.3745C2.41257 26.7003 2.08333 25.7858 2.08333 24.8322V11.6491H47.9167V24.8322Z" fill="white"/>
</svg>
