<svg width="50" height="50" fill="none" xmlns="http://www.w3.org/2000/svg"><path d="m26.003 13.944 14.993-2.177a2.177 2.177 0 0 1 2.49 2.082l.817 24.613a2.178 2.178 0 0 1-2.05 2.246l-15.81.925a2.177 2.177 0 0 1-2.304-2.173V16.099c0-1.082.794-2 1.864-2.155Z" fill="#666"/><path d="M23.997 13.944 9.004 11.767a2.177 2.177 0 0 0-2.49 2.082l-.817 24.613a2.177 2.177 0 0 0 2.05 2.246l15.81.925a2.177 2.177 0 0 0 2.304-2.173V16.099a2.177 2.177 0 0 0-1.864-2.155Z" fill="#666"/><path d="m25.659 13.174 14.713-2.48a.726.726 0 0 1 .846.695l.767 26.5a.726.726 0 0 1-.677.744l-15.48 1.038a.726.726 0 0 1-.774-.724V13.89c0-.354.256-.657.605-.716Z" fill="#fff"/><path fill-rule="evenodd" clip-rule="evenodd" d="m40.251 9.979-14.713 2.48a1.451 1.451 0 0 0-1.21 1.431v25.057c0 .84.71 1.504 1.549 1.448l15.48-1.038a1.451 1.451 0 0 0 1.354-1.49l-.768-26.499a1.452 1.452 0 0 0-1.692-1.39Zm.12.715-14.712 2.48a.726.726 0 0 0-.605.716v25.057c0 .42.355.752.774.724l15.48-1.038a.726.726 0 0 0 .677-.745l-.767-26.499a.726.726 0 0 0-.846-.695Z" fill="#666"/><path d="m25.924 13.116 12.631-3.993c.46-.145.93.19.945.671l.765 26.453a.725.725 0 0 1-.588.734l-13.398 2.576a.725.725 0 0 1-.862-.713V13.808c0-.316.205-.597.507-.692Z" fill="#fff"/><path fill-rule="evenodd" clip-rule="evenodd" d="m38.337 8.431-12.632 3.993a1.451 1.451 0 0 0-1.014 1.384v25.036c0 .912.83 1.598 1.725 1.426l13.398-2.576a1.451 1.451 0 0 0 1.177-1.468l-.766-26.453a1.452 1.452 0 0 0-1.888-1.342Zm.218.692-12.631 3.993a.726.726 0 0 0-.507.692v25.036c0 .456.415.799.862.713l13.398-2.576a.725.725 0 0 0 .588-.733L39.5 9.794a.726.726 0 0 0-.945-.67Z" fill="#666"/><path d="m28.73 11.71 2.228-.728v5.964l-1.114-.683-1.114 1.114v-5.668Z" fill="#666"/><path fill-rule="evenodd" clip-rule="evenodd" d="M28.005 11.71c0-.315.202-.593.5-.69l2.228-.728a.726.726 0 0 1 .95.69v5.964a.726.726 0 0 1-1.104.619l-.626-.384-.71.709a.726.726 0 0 1-1.238-.513V11.71Zm2.953 5.236-1.114-.683-1.114 1.114V11.71l2.228-.728v5.964Z" fill="#666"/><path d="m24.019 13.174-14.61-2.479a.726.726 0 0 0-.847.695l-.763 26.5a.726.726 0 0 0 .677.745l15.373 1.037a.726.726 0 0 0 .774-.724V13.889a.726.726 0 0 0-.604-.715Z" fill="#fff"/><path fill-rule="evenodd" clip-rule="evenodd" d="m9.53 9.98 14.61 2.479a1.451 1.451 0 0 1 1.209 1.43v25.058c0 .84-.711 1.504-1.55 1.448L8.428 39.358a1.452 1.452 0 0 1-1.353-1.49l.762-26.499A1.451 1.451 0 0 1 9.53 9.98Zm-.122.715 14.61 2.479c.35.06.605.361.605.715v25.058c0 .42-.355.752-.774.724L8.476 38.634a.726.726 0 0 1-.677-.745l.763-26.499a.726.726 0 0 1 .846-.695Z" fill="#666"/><path fill-rule="evenodd" clip-rule="evenodd" d="M20.585 20.373a1.771 1.771 0 0 1 1.444.005.363.363 0 1 1-.31.656 1.046 1.046 0 0 0-.84.002c-.267.119-.518.372-.6.856-.082.48.026.94.266 1.245.228.29.598.474 1.144.382a.363.363 0 1 1 .12.715c-.794.135-1.435-.14-1.834-.648-.387-.493-.522-1.17-.412-1.816.123-.716.525-1.177 1.022-1.397Zm18.146-1.815a.363.363 0 0 0-.426-.286l-11.57 2.26a.363.363 0 1 0 .14.712l11.57-2.26a.363.363 0 0 0 .286-.426Zm0 1.669a.363.363 0 0 0-.426-.287l-11.57 2.26a.363.363 0 1 0 .14.712l11.57-2.26a.363.363 0 0 0 .286-.425Zm0 6.699a.363.363 0 0 0-.426-.286l-11.57 2.26a.363.363 0 0 0 .14.712l11.57-2.26a.363.363 0 0 0 .286-.426Zm0-4.977a.363.363 0 0 0-.426-.287l-11.57 2.26a.363.363 0 1 0 .14.712l11.57-2.26a.363.363 0 0 0 .286-.425Zm0 6.7a.363.363 0 0 0-.426-.287l-11.57 2.26a.363.363 0 0 0 .14.712l11.57-2.26a.363.363 0 0 0 .286-.425Zm0-4.911a.363.363 0 0 0-.426-.287l-11.57 2.26a.363.363 0 1 0 .14.713l11.57-2.26a.363.363 0 0 0 .286-.426Zm0 6.7a.363.363 0 0 0-.426-.287l-11.57 2.26a.363.363 0 1 0 .14.713l11.57-2.26a.363.363 0 0 0 .286-.426Zm-5.245 2.9a.363.363 0 0 0-.42-.296l-6.323 1.09a.363.363 0 0 0 .123.715l6.324-1.09a.363.363 0 0 0 .296-.419ZM10.19 26.35a.363.363 0 0 1 .394-.328L22.316 27.1a.363.363 0 1 1-.067.722l-11.731-1.076a.363.363 0 0 1-.328-.395Zm0 4.842a.363.363 0 0 1 .394-.328l11.732 1.077a.363.363 0 1 1-.067.722l-11.731-1.076a.363.363 0 0 1-.328-.395Zm-.001-3.114a.363.363 0 0 1 .386-.337l6.404.43a.363.363 0 0 1-.049.724l-6.403-.43a.363.363 0 0 1-.338-.387Zm0 4.842a.363.363 0 0 1 .387-.337l9.19.643a.363.363 0 1 1-.05.724l-9.19-.643a.363.363 0 0 1-.337-.388Zm0 1.545a.363.363 0 0 1 .386-.338l6.404.431a.363.363 0 0 1-.049.724l-6.403-.43a.363.363 0 0 1-.338-.387Zm2.385-18.675a.363.363 0 0 1 .332.261l2.152 7.4a.363.363 0 1 1-.697.202l-1.857-6.385-2.435 6.122a.363.363 0 0 1-.674-.268l2.825-7.104a.363.363 0 0 1 .354-.228Z" fill="#666"/><path fill-rule="evenodd" clip-rule="evenodd" d="M14.144 20.74c0 .2-.162.363-.362.363h-3.027a.363.363 0 1 1 0-.726h3.027c.2 0 .362.163.362.363Zm2.489-1.977v1.482c.095.004.198.014.3.03a2.05 2.05 0 0 0 .443-.082.922.922 0 0 0 .39-.218.475.475 0 0 0 .133-.352c0-.317-.188-.53-.53-.68a2.495 2.495 0 0 0-.736-.18Zm1.44 1.896c.077-.052.15-.112.216-.181.207-.215.335-.501.335-.855 0-.715-.476-1.13-.963-1.345-.48-.21-1.035-.265-1.4-.255a.363.363 0 0 0-.354.363v5.22c0 .16.106.302.26.348a2.95 2.95 0 0 0 1.616-.026c.296-.094.591-.252.826-.505a1.73 1.73 0 0 0 .443-1.016c.096-.878-.425-1.433-.98-1.747Zm-1.44.348c.082.003.17.002.264-.002.218.04.471.113.704.226.477.232.787.577.73 1.098a1.01 1.01 0 0 1-.254.6c-.13.14-.306.242-.514.308-.312.1-.66.107-.93.073v-2.303Z" fill="#666"/></svg>