<svg width="46" height="48" fill="none" xmlns="http://www.w3.org/2000/svg"><path d="M9.39 4.204c-.858 0-1.667.844-1.667 1.739v36.522c0 .844.857 1.739 1.666 1.739h26.667c.81 0 1.667-.895 1.667-1.74V15.509L26.889 4.204H9.39Z" fill="#D41A1A"/><g filter="url(#a)"><path d="m26.794 4.475 10.833 11.304h-9.166c-.81 0-1.667-.894-1.667-1.74V4.476Z" fill="#000" fill-opacity=".392"/></g><path d="m26.89 4.204 10.833 11.304h-9.167c-.81 0-1.667-.894-1.667-1.74V4.205Z" fill="#E55A5A"/><path d="M19.294 14.763c-.981-.018-1.828 1-1.62 2.018.139 1.555 1.1 2.817 1.85 4.1.084.479-.158.944-.174 1.418-.489 2.787-1.235 5.558-2.382 8.115-1.42.682-3.027 1.356-3.857 2.825-.527 1.02.215 2.397 1.304 2.504 1.01.144 1.76-.76 2.313-1.516.576-.815.956-1.784 1.436-2.66 2.904-1.22 5.96-2.073 9.078-2.397 1.26.942 2.597 2.053 4.214 2.12.94-.014 1.7-.966 1.597-1.933-.06-.88-.81-1.498-1.586-1.663-1.253-.394-2.594-.178-3.868-.169-2.452-2.044-4.715-4.396-6.498-7.087.133-1.636.398-3.445-.418-4.934-.31-.47-.835-.791-1.39-.74Zm.047 1.486c.276.056.294.485.371.714.073.468.065.945.06 1.417-.329-.64-.756-1.31-.68-2.07.087-.005.164-.05.249-.06Zm1.52 6.38a38.599 38.599 0 0 0 4.856 5.225 35.15 35.15 0 0 0-6.878 1.834 41.641 41.641 0 0 0 1.929-7.176l.093.118Zm9.115 6.373c.566.058 1.22.023 1.674.43.042.368-.389.422-.619.289-.479-.167-.952-.377-1.359-.696.101-.007.202-.02.304-.023ZM15.819 32.87a5.053 5.053 0 0 1-1.07 1.386c-.137.23-.51-.196-.338-.375.354-.58.974-.887 1.522-1.233l-.114.222" fill="#fff"/><defs><filter id="a" x="26.229" y="3.909" width="11.964" height="12.435" filterUnits="userSpaceOnUse" color-interpolation-filters="sRGB"><feFlood flood-opacity="0" result="BackgroundImageFix"/><feBlend in="SourceGraphic" in2="BackgroundImageFix" result="shape"/><feGaussianBlur stdDeviation=".283" result="effect1_foregroundBlur_20_28"/></filter></defs></svg>