<svg width="46" height="48" viewBox="0 0 46 48" fill="none" xmlns="http://www.w3.org/2000/svg">
<path d="M9.38943 4.20358C8.53226 4.20358 7.72276 5.04828 7.72276 5.94271V42.4645C7.72276 43.3092 8.57993 44.2036 9.38943 44.2036H36.0561C36.8656 44.2036 37.7228 43.3092 37.7228 42.4645V15.5079L26.8894 4.20358H9.38943Z" fill="#D41A1A"/>
<g filter="url(#filter0_f_20_28)">
<path d="M26.7939 4.47467L37.6272 15.779H28.4606C27.651 15.779 26.7939 14.8846 26.7939 14.0399V4.47467Z" fill="black" fill-opacity="0.392"/>
</g>
<path d="M26.8894 4.20358L37.7228 15.5079H28.5561C27.7466 15.5079 26.8894 14.6135 26.8894 13.7688V4.20358Z" fill="#E55A5A"/>
<path d="M19.2939 14.7632C18.3127 14.7453 17.4658 15.7637 17.6733 16.7812C17.8129 18.3359 18.7736 19.5976 19.5233 20.8814C19.6077 21.3595 19.366 21.8249 19.3498 22.2995C18.861 25.086 18.1153 27.8574 16.9681 30.4144C15.5485 31.0963 13.9409 31.7697 13.1107 33.2395C12.5837 34.2593 13.3257 35.6355 14.4149 35.7431C15.4254 35.8873 16.1754 34.9837 16.7277 34.2267C17.3045 33.4123 17.684 32.4427 18.1639 31.5675C21.0679 30.3471 24.1231 29.4942 27.2418 29.1704C28.5028 30.1121 29.8388 31.2232 31.4559 31.2903C32.3958 31.2757 33.1564 30.3236 33.0534 29.3566C32.9928 28.4762 32.2433 27.8588 31.4668 27.6936C30.2144 27.2999 28.8727 27.5155 27.5988 27.5251C25.1472 25.481 22.884 23.1291 21.1014 20.4382C21.2337 18.8022 21.4993 16.9925 20.683 15.5042C20.373 15.0348 19.8475 14.7129 19.2939 14.7636L19.2939 14.7632ZM19.3406 16.2494C19.6167 16.3049 19.635 16.7339 19.7123 16.9634C19.785 17.4309 19.7771 17.9081 19.7718 18.3803C19.4431 17.7392 19.0161 17.0694 19.0921 16.3094C19.1788 16.3054 19.2555 16.26 19.3406 16.2495L19.3406 16.2494ZM20.8618 22.6296C22.323 24.5253 23.946 26.2712 25.7172 27.8538C23.3817 28.2255 21.0614 28.8481 18.8394 29.6881C19.6916 27.3639 20.3404 24.9627 20.768 22.512C20.7991 22.5512 20.8303 22.5903 20.8614 22.6296H20.8618ZM29.9756 29.0025C30.5421 29.0595 31.1959 29.0253 31.6495 29.4327C31.6921 29.8004 31.261 29.854 31.0314 29.721C30.5525 29.5541 30.0787 29.3443 29.6721 29.0246C29.7734 29.0176 29.8743 29.0045 29.976 29.0024L29.9756 29.0025ZM15.8189 32.8697C15.5495 33.3926 15.1574 33.8855 14.7484 34.2557C14.6123 34.4856 14.2389 34.0605 14.4107 33.881C14.7655 33.3014 15.385 32.9942 15.9334 32.6481C15.8951 32.722 15.857 32.7959 15.8187 32.8698" fill="white"/>
<defs>
<filter id="filter0_f_20_28" x="26.2287" y="3.90945" width="11.9638" height="12.4348" filterUnits="userSpaceOnUse" color-interpolation-filters="sRGB">
<feFlood flood-opacity="0" result="BackgroundImageFix"/>
<feBlend mode="normal" in="SourceGraphic" in2="BackgroundImageFix" result="shape"/>
<feGaussianBlur stdDeviation="0.282609" result="effect1_foregroundBlur_20_28"/>
</filter>
</defs>
</svg>
